<?xml version="1.0" encoding="utf-8"?>
<!-- Generated by IcoMoon.io -->
<!DOCTYPE svg PUBLIC "-//W3C//DTD SVG 1.1//EN" "http://www.w3.org/Graphics/SVG/1.1/DTD/svg11.dtd">
<svg version="1.1" xmlns="http://www.w3.org/2000/svg" xmlns:xlink="http://www.w3.org/1999/xlink" width="32" height="32" viewBox="0 0 32 32">
<g id="icomoon-ignore">
	<line stroke-width="1" x1="" y1="" x2="" y2="" stroke="#449FDB" opacity=""></line>
</g>
	<path d="M0 26.286v-2.286q0-0.464 0.339-0.804t0.804-0.339h29.714q0.464 0 0.804 0.339t0.339 0.804v2.286q0 0.464-0.339 0.804t-0.804 0.339h-29.714q-0.464 0-0.804-0.339t-0.339-0.804zM0 19.429v-2.286q0-0.464 0.339-0.804t0.804-0.339h22.857q0.464 0 0.804 0.339t0.339 0.804v2.286q0 0.464-0.339 0.804t-0.804 0.339h-22.857q-0.464 0-0.804-0.339t-0.339-0.804zM0 12.571v-2.286q0-0.464 0.339-0.804t0.804-0.339h27.429q0.464 0 0.804 0.339t0.339 0.804v2.286q0 0.464-0.339 0.804t-0.804 0.339h-27.429q-0.464 0-0.804-0.339t-0.339-0.804zM0 5.714v-2.286q0-0.464 0.339-0.804t0.804-0.339h20.571q0.464 0 0.804 0.339t0.339 0.804v2.286q0 0.464-0.339 0.804t-0.804 0.339h-20.571q-0.464 0-0.804-0.339t-0.339-0.804z" fill="#000000"></path>
</svg>
