<?xml version="1.0" encoding="utf-8"?>
<!-- Generated by IcoMoon.io -->
<!DOCTYPE svg PUBLIC "-//W3C//DTD SVG 1.1//EN" "http://www.w3.org/Graphics/SVG/1.1/DTD/svg11.dtd">
<svg version="1.1" xmlns="http://www.w3.org/2000/svg" xmlns:xlink="http://www.w3.org/1999/xlink" width="32" height="32" viewBox="0 0 32 32">
<g id="icomoon-ignore">
	<line stroke-width="1" x1="" y1="" x2="" y2="" stroke="#449FDB" opacity=""></line>
</g>
	<path d="M0 15.946q0-2.804 1.089-5.348t2.92-4.384 4.375-2.929 5.33-1.089 5.33 1.089 4.375 2.929 2.92 4.384 1.089 5.348-1.089 5.357-2.92 4.393-4.375 2.929-5.33 1.089-5.33-1.089-4.375-2.929-2.92-4.393-1.089-5.357zM4 15.946q0 2.893 1.589 5.339l13.482-13.464q-2.411-1.625-5.357-1.625-2.643 0-4.875 1.304t-3.536 3.554-1.304 4.893zM8.411 24.125q2.446 1.589 5.304 1.589 1.982 0 3.777-0.777t3.098-2.080 2.071-3.116 0.768-3.795q0-2.875-1.554-5.268z" fill="#000000"></path>
</svg>
