<?xml version="1.0" encoding="utf-8"?>
<!-- Generated by IcoMoon.io -->
<!DOCTYPE svg PUBLIC "-//W3C//DTD SVG 1.1//EN" "http://www.w3.org/Graphics/SVG/1.1/DTD/svg11.dtd">
<svg version="1.1" xmlns="http://www.w3.org/2000/svg" xmlns:xlink="http://www.w3.org/1999/xlink" width="32" height="32" viewBox="0 0 32 32">
<g id="icomoon-ignore">
	<line stroke-width="1" x1="" y1="" x2="" y2="" stroke="#449FDB" opacity=""></line>
</g>
	<path d="M0 27.429v-25.143h1.125v25.143h-1.125zM1.679 27.411v-25.125h0.571v25.125h-0.571zM3.375 27.411v-25.125h0.554v25.125h-0.554zM6.179 27.411v-25.125h0.554v25.125h-0.554zM8.429 27.411v-25.125h1.107v25.125h-1.107zM11.232 27.411v-25.125h0.554v25.125h-0.554zM12.357 27.411v-25.125h0.554v25.125h-0.554zM13.482 27.411v-25.125h0.554v25.125h-0.554zM15.714 27.411v-25.125h1.125v25.125h-1.125zM18.518 27.411v-25.125h1.125v25.125h-1.125zM20.768 27.411v-25.125h1.125v25.125h-1.125zM23.018 27.411v-25.125h1.125v25.125h-1.125zM24.696 27.411v-25.125h1.125v25.125h-1.125zM27.518 27.411v-25.125h1.679v25.125h-1.679zM29.75 27.411v-25.125h0.571v25.125h-0.571zM30.875 27.429v-25.143h1.125v25.143h-1.125z" fill="#000000"></path>
</svg>
