<?xml version="1.0" encoding="utf-8"?>
<!-- Generated by IcoMoon.io -->
<!DOCTYPE svg PUBLIC "-//W3C//DTD SVG 1.1//EN" "http://www.w3.org/Graphics/SVG/1.1/DTD/svg11.dtd">
<svg version="1.1" xmlns="http://www.w3.org/2000/svg" xmlns:xlink="http://www.w3.org/1999/xlink" width="32" height="32" viewBox="0 0 32 32">
<g id="icomoon-ignore">
	<line stroke-width="1" x1="" y1="" x2="" y2="" stroke="#449FDB" opacity=""></line>
</g>
	<path d="M0 24.571v-8.571h12v2.857q0 0.464 0.339 0.804t0.804 0.339h5.714q0.464 0 0.804-0.339t0.339-0.804v-2.857h12v8.571q0 1.179-0.839 2.018t-2.018 0.839h-26.286q-1.179 0-2.018-0.839t-0.839-2.018zM0 14.286v-6.857q0-1.179 0.839-2.018t2.018-0.839h6.286v-2.857q0-0.714 0.5-1.214t1.214-0.5h10.286q0.714 0 1.214 0.5t0.5 1.214v2.857h6.286q1.179 0 2.018 0.839t0.839 2.018v6.857h-32zM11.429 4.571h9.143v-2.286h-9.143v2.286zM13.714 18.286v-2.286h4.571v2.286h-4.571z" fill="#000000"></path>
</svg>
