<?xml version="1.0" encoding="utf-8"?>
<!-- Generated by IcoMoon.io -->
<!DOCTYPE svg PUBLIC "-//W3C//DTD SVG 1.1//EN" "http://www.w3.org/Graphics/SVG/1.1/DTD/svg11.dtd">
<svg version="1.1" xmlns="http://www.w3.org/2000/svg" xmlns:xlink="http://www.w3.org/1999/xlink" width="25" height="32" viewBox="0 0 25 32">
<g id="icomoon-ignore">
	<line stroke-width="1" x1="" y1="" x2="" y2="" stroke="#449FDB" opacity=""></line>
</g>
	<path d="M0 30.857v-29.714q0-0.464 0.339-0.804t0.804-0.339h22.857q0.464 0 0.804 0.339t0.339 0.804v29.714q0 0.464-0.339 0.804t-0.804 0.339h-22.857q-0.464 0-0.804-0.339t-0.339-0.804zM2.286 29.714h6.857v-4q0-0.232 0.17-0.402t0.402-0.17h5.714q0.232 0 0.402 0.17t0.17 0.402v4h6.857v-27.429h-20.571v27.429zM4.571 24.571v-1.143q0-0.232 0.17-0.402t0.402-0.17h1.143q0.232 0 0.402 0.17t0.17 0.402v1.143q0 0.232-0.17 0.402t-0.402 0.17h-1.143q-0.232 0-0.402-0.17t-0.17-0.402zM4.571 20v-1.143q0-0.232 0.17-0.402t0.402-0.17h1.143q0.232 0 0.402 0.17t0.17 0.402v1.143q0 0.232-0.17 0.402t-0.402 0.17h-1.143q-0.232 0-0.402-0.17t-0.17-0.402zM4.571 15.429v-1.143q0-0.232 0.17-0.402t0.402-0.17h1.143q0.232 0 0.402 0.17t0.17 0.402v1.143q0 0.232-0.17 0.402t-0.402 0.17h-1.143q-0.232 0-0.402-0.17t-0.17-0.402zM4.571 10.857v-1.143q0-0.232 0.17-0.402t0.402-0.17h1.143q0.232 0 0.402 0.17t0.17 0.402v1.143q0 0.232-0.17 0.402t-0.402 0.17h-1.143q-0.232 0-0.402-0.17t-0.17-0.402zM4.571 6.286v-1.143q0-0.232 0.17-0.402t0.402-0.17h1.143q0.232 0 0.402 0.17t0.17 0.402v1.143q0 0.232-0.17 0.402t-0.402 0.17h-1.143q-0.232 0-0.402-0.17t-0.17-0.402zM9.143 20v-1.143q0-0.232 0.17-0.402t0.402-0.17h1.143q0.232 0 0.402 0.17t0.17 0.402v1.143q0 0.232-0.17 0.402t-0.402 0.17h-1.143q-0.232 0-0.402-0.17t-0.17-0.402zM9.143 15.429v-1.143q0-0.232 0.17-0.402t0.402-0.17h1.143q0.232 0 0.402 0.17t0.17 0.402v1.143q0 0.232-0.17 0.402t-0.402 0.17h-1.143q-0.232 0-0.402-0.17t-0.17-0.402zM9.143 10.857v-1.143q0-0.232 0.17-0.402t0.402-0.17h1.143q0.232 0 0.402 0.17t0.17 0.402v1.143q0 0.232-0.17 0.402t-0.402 0.17h-1.143q-0.232 0-0.402-0.17t-0.17-0.402zM9.143 6.286v-1.143q0-0.232 0.17-0.402t0.402-0.17h1.143q0.232 0 0.402 0.17t0.17 0.402v1.143q0 0.232-0.17 0.402t-0.402 0.17h-1.143q-0.232 0-0.402-0.17t-0.17-0.402zM13.714 20v-1.143q0-0.232 0.17-0.402t0.402-0.17h1.143q0.232 0 0.402 0.17t0.17 0.402v1.143q0 0.232-0.17 0.402t-0.402 0.17h-1.143q-0.232 0-0.402-0.17t-0.17-0.402zM13.714 15.429v-1.143q0-0.232 0.17-0.402t0.402-0.17h1.143q0.232 0 0.402 0.17t0.17 0.402v1.143q0 0.232-0.17 0.402t-0.402 0.17h-1.143q-0.232 0-0.402-0.17t-0.17-0.402zM13.714 10.857v-1.143q0-0.232 0.17-0.402t0.402-0.17h1.143q0.232 0 0.402 0.17t0.17 0.402v1.143q0 0.232-0.17 0.402t-0.402 0.17h-1.143q-0.232 0-0.402-0.17t-0.17-0.402zM13.714 6.286v-1.143q0-0.232 0.17-0.402t0.402-0.17h1.143q0.232 0 0.402 0.17t0.17 0.402v1.143q0 0.232-0.17 0.402t-0.402 0.17h-1.143q-0.232 0-0.402-0.17t-0.17-0.402zM18.286 24.571v-1.143q0-0.232 0.17-0.402t0.402-0.17h1.143q0.232 0 0.402 0.17t0.17 0.402v1.143q0 0.232-0.17 0.402t-0.402 0.17h-1.143q-0.232 0-0.402-0.17t-0.17-0.402zM18.286 20v-1.143q0-0.232 0.17-0.402t0.402-0.17h1.143q0.232 0 0.402 0.17t0.17 0.402v1.143q0 0.232-0.17 0.402t-0.402 0.17h-1.143q-0.232 0-0.402-0.17t-0.17-0.402zM18.286 15.429v-1.143q0-0.232 0.17-0.402t0.402-0.17h1.143q0.232 0 0.402 0.17t0.17 0.402v1.143q0 0.232-0.17 0.402t-0.402 0.17h-1.143q-0.232 0-0.402-0.17t-0.17-0.402zM18.286 10.857v-1.143q0-0.232 0.17-0.402t0.402-0.17h1.143q0.232 0 0.402 0.17t0.17 0.402v1.143q0 0.232-0.17 0.402t-0.402 0.17h-1.143q-0.232 0-0.402-0.17t-0.17-0.402zM18.286 6.286v-1.143q0-0.232 0.17-0.402t0.402-0.17h1.143q0.232 0 0.402 0.17t0.17 0.402v1.143q0 0.232-0.17 0.402t-0.402 0.17h-1.143q-0.232 0-0.402-0.17t-0.17-0.402z" fill="#000000"></path>
</svg>
