<?xml version="1.0" encoding="utf-8"?>
<!-- Generated by IcoMoon.io -->
<!DOCTYPE svg PUBLIC "-//W3C//DTD SVG 1.1//EN" "http://www.w3.org/Graphics/SVG/1.1/DTD/svg11.dtd">
<svg version="1.1" xmlns="http://www.w3.org/2000/svg" xmlns:xlink="http://www.w3.org/1999/xlink" width="32" height="32" viewBox="0 0 32 32">
<g id="icomoon-ignore">
	<line stroke-width="1" x1="" y1="" x2="" y2="" stroke="#449FDB" opacity=""></line>
</g>
	<path d="M0 16q0-3.732 1.839-6.884t4.991-4.991 6.884-1.839 6.884 1.839 4.991 4.991 1.839 6.884-1.839 6.884-4.991 4.991-6.884 1.839-6.884-1.839-4.991-4.991-1.839-6.884zM2.286 16q0 2.321 0.911 4.438t2.438 3.643 3.643 2.438 4.438 0.911 4.438-0.911 3.643-2.438 2.438-3.643 0.911-4.438-0.911-4.438-2.438-3.643-3.643-2.438-4.438-0.911-4.438 0.911-3.643 2.438-2.438 3.643-0.911 4.438zM4.571 16q0-3.786 2.679-6.464t6.464-2.679 6.464 2.679 2.679 6.464-2.679 6.464-6.464 2.679-6.464-2.679-2.679-6.464zM6.857 16q0 2.839 2.009 4.848t4.848 2.009 4.848-2.009 2.009-4.848-2.009-4.848-4.848-2.009-4.848 2.009-2.009 4.848zM9.143 16q0-1.893 1.339-3.232t3.232-1.339 3.232 1.339 1.339 3.232-1.339 3.232-3.232 1.339-3.232-1.339-1.339-3.232z" fill="#000000"></path>
</svg>
