<?xml version="1.0" encoding="utf-8"?>
<!-- Generated by IcoMoon.io -->
<!DOCTYPE svg PUBLIC "-//W3C//DTD SVG 1.1//EN" "http://www.w3.org/Graphics/SVG/1.1/DTD/svg11.dtd">
<svg version="1.1" xmlns="http://www.w3.org/2000/svg" xmlns:xlink="http://www.w3.org/1999/xlink" width="34" height="32" viewBox="0 0 34 32">
<g id="icomoon-ignore">
	<line stroke-width="1" x1="" y1="" x2="" y2="" stroke="#449FDB" opacity=""></line>
</g>
	<path d="M0 25.143v-16q0-1.893 1.339-3.232t3.232-1.339h4l0.911-2.429q0.339-0.875 1.241-1.509t1.848-0.634h9.143q0.946 0 1.848 0.634t1.241 1.509l0.911 2.429h4q1.893 0 3.232 1.339t1.339 3.232v16q0 1.893-1.339 3.232t-3.232 1.339h-25.143q-1.893 0-3.232-1.339t-1.339-3.232zM9.143 17.143q0 3.304 2.348 5.652t5.652 2.348 5.652-2.348 2.348-5.652-2.348-5.652-5.652-2.348-5.652 2.348-2.348 5.652zM12 17.143q0-2.125 1.509-3.634t3.634-1.509 3.634 1.509 1.509 3.634-1.509 3.634-3.634 1.509-3.634-1.509-1.509-3.634z" fill="#000000"></path>
</svg>
