<?xml version="1.0" encoding="utf-8"?>
<!-- Generated by IcoMoon.io -->
<!DOCTYPE svg PUBLIC "-//W3C//DTD SVG 1.1//EN" "http://www.w3.org/Graphics/SVG/1.1/DTD/svg11.dtd">
<svg version="1.1" xmlns="http://www.w3.org/2000/svg" xmlns:xlink="http://www.w3.org/1999/xlink" width="32" height="32" viewBox="0 0 32 32">
<g id="icomoon-ignore">
	<line stroke-width="1" x1="" y1="" x2="" y2="" stroke="#449FDB" opacity=""></line>
</g>
	<path d="M0 16q0-3.732 1.839-6.884t4.991-4.991 6.884-1.839 6.884 1.839 4.991 4.991 1.839 6.884-1.839 6.884-4.991 4.991-6.884 1.839-6.884-1.839-4.991-4.991-1.839-6.884zM4 16q0 2.643 1.304 4.875t3.536 3.536 4.875 1.304 4.875-1.304 3.536-3.536 1.304-4.875-1.304-4.875-3.536-3.536-4.875-1.304-4.875 1.304-3.536 3.536-1.304 4.875zM6.179 16q0-0.464 0.339-0.804l1.821-1.821q0.339-0.339 0.804-0.339t0.804 0.339l2.625 2.625 4.911-4.911q0.339-0.339 0.804-0.339t0.804 0.339l1.821 1.821q0.339 0.339 0.339 0.804t-0.339 0.804l-7.536 7.536q-0.339 0.339-0.804 0.339t-0.804-0.339l-5.25-5.25q-0.339-0.339-0.339-0.804z" fill="#000000"></path>
</svg>
