<?xml version="1.0" encoding="utf-8"?>
<!-- Generated by IcoMoon.io -->
<!DOCTYPE svg PUBLIC "-//W3C//DTD SVG 1.1//EN" "http://www.w3.org/Graphics/SVG/1.1/DTD/svg11.dtd">
<svg version="1.1" xmlns="http://www.w3.org/2000/svg" xmlns:xlink="http://www.w3.org/1999/xlink" width="32" height="32" viewBox="0 0 32 32">
<g id="icomoon-ignore">
	<line stroke-width="1" x1="" y1="" x2="" y2="" stroke="#449FDB" opacity=""></line>
</g>
	<path d="M0 24.571v-17.143q0-2.125 1.509-3.634t3.634-1.509h17.143q2.125 0 3.634 1.509t1.509 3.634v17.143q0 2.125-1.509 3.634t-3.634 1.509h-17.143q-2.125 0-3.634-1.509t-1.509-3.634zM3.893 16q0 0.464 0.339 0.804l6.393 6.393q0.339 0.339 0.804 0.339t0.804-0.339l10.964-10.964q0.339-0.339 0.339-0.804t-0.339-0.804l-1.821-1.821q-0.339-0.339-0.804-0.339t-0.804 0.339l-8.339 8.339-3.768-3.768q-0.339-0.339-0.804-0.339t-0.804 0.339l-1.821 1.821q-0.339 0.339-0.339 0.804z" fill="#000000"></path>
</svg>
