<?xml version="1.0" encoding="utf-8"?>
<!-- Generated by IcoMoon.io -->
<!DOCTYPE svg PUBLIC "-//W3C//DTD SVG 1.1//EN" "http://www.w3.org/Graphics/SVG/1.1/DTD/svg11.dtd">
<svg version="1.1" xmlns="http://www.w3.org/2000/svg" xmlns:xlink="http://www.w3.org/1999/xlink" width="23" height="32" viewBox="0 0 23 32">
<g id="icomoon-ignore">
	<line stroke-width="1" x1="" y1="" x2="" y2="" stroke="#449FDB" opacity=""></line>
</g>
	<path d="M1.143 8.571q0-0.714 0.5-1.214t1.214-0.5 1.214 0.5l4.071 4.071h6.571l4.071-4.071q0.5-0.5 1.214-0.5t1.214 0.5 0.5 1.214-0.5 1.214l-5.214 5.214v14.714q0 0.821-0.589 1.411t-1.411 0.589-1.411-0.589-0.589-1.411v-6.857h-1.143v6.857q0 0.821-0.589 1.411t-1.411 0.589-1.411-0.589-0.589-1.411v-14.714l-5.214-5.214q-0.5-0.5-0.5-1.214zM7.429 6.857q0-1.661 1.17-2.83t2.83-1.17 2.83 1.17 1.17 2.83-1.17 2.83-2.83 1.17-2.83-1.17-1.17-2.83z" fill="#000000"></path>
</svg>
