<?xml version="1.0" encoding="utf-8"?>
<!-- Generated by IcoMoon.io -->
<!DOCTYPE svg PUBLIC "-//W3C//DTD SVG 1.1//EN" "http://www.w3.org/Graphics/SVG/1.1/DTD/svg11.dtd">
<svg version="1.1" xmlns="http://www.w3.org/2000/svg" xmlns:xlink="http://www.w3.org/1999/xlink" width="32" height="32" viewBox="0 0 32 32">
<g id="icomoon-ignore">
	<line stroke-width="1" x1="" y1="" x2="" y2="" stroke="#449FDB" opacity=""></line>
</g>
	<path d="M0 16q0-3.964 1.804-7.402t4.938-5.661 6.973-2.777v4.643q-3.946 0.804-6.545 3.946t-2.598 7.25q0 2.321 0.911 4.438t2.438 3.643 3.643 2.438 4.438 0.911 4.438-0.911 3.643-2.438 2.438-3.643 0.911-4.438q0-4.107-2.598-7.25t-6.545-3.946v-4.643q3.839 0.554 6.973 2.777t4.938 5.661 1.804 7.402q0 3.25-1.268 6.214t-3.411 5.107-5.107 3.411-6.214 1.268-6.214-1.268-5.107-3.411-3.411-5.107-1.268-6.214z" fill="#000000"></path>
</svg>
