<?xml version="1.0" encoding="utf-8"?>
<!-- Generated by IcoMoon.io -->
<!DOCTYPE svg PUBLIC "-//W3C//DTD SVG 1.1//EN" "http://www.w3.org/Graphics/SVG/1.1/DTD/svg11.dtd">
<svg version="1.1" xmlns="http://www.w3.org/2000/svg" xmlns:xlink="http://www.w3.org/1999/xlink" width="41" height="32" viewBox="0 0 41 32">
<g id="icomoon-ignore">
	<line stroke-width="1" x1="" y1="" x2="" y2="" stroke="#449FDB" opacity=""></line>
</g>
	<path d="M0 25.714v-7.429q0-0.679 0.384-1.25t1.009-0.857l7.75-3.321v-7.143q0-0.679 0.384-1.25t1.009-0.857l8-3.429q0.411-0.179 0.893-0.179t0.893 0.179l8 3.429q0.625 0.286 1.009 0.857t0.384 1.25v7.143l7.75 3.321q0.643 0.286 1.018 0.857t0.375 1.25v7.429q0 0.643-0.339 1.196t-0.929 0.839l-8 4q-0.446 0.25-1.018 0.25t-1.018-0.25l-8-4q-0.089-0.036-0.125-0.071-0.036 0.036-0.125 0.071l-8 4q-0.446 0.25-1.018 0.25t-1.018-0.25l-8-4q-0.589-0.286-0.929-0.839t-0.339-1.196zM3.071 17.946l7.214 3.089 7.214-3.089-7.214-3.089zM11.429 29.143l6.857-3.429v-5.607l-6.857 2.929v6.107zM11.554 5.661l7.875 3.375 7.875-3.375-7.875-3.375zM20.571 15.804l6.857-2.946v-4.75l-6.857 2.929v4.768zM21.357 17.946l7.214 3.089 7.214-3.089-7.214-3.089zM29.714 29.143l6.857-3.429v-5.607l-6.857 2.929v6.107z" fill="#000000"></path>
</svg>
