<?xml version="1.0" encoding="utf-8"?>
<!-- Generated by IcoMoon.io -->
<!DOCTYPE svg PUBLIC "-//W3C//DTD SVG 1.1//EN" "http://www.w3.org/Graphics/SVG/1.1/DTD/svg11.dtd">
<svg version="1.1" xmlns="http://www.w3.org/2000/svg" xmlns:xlink="http://www.w3.org/1999/xlink" width="32" height="32" viewBox="0 0 32 32">
<g id="icomoon-ignore">
	<line stroke-width="1" x1="" y1="" x2="" y2="" stroke="#449FDB" opacity=""></line>
</g>
	<path d="M0 27.232v-22.464q0-1.036 0.723-1.759t1.759-0.723h22.464q1.036 0 1.759 0.723t0.723 1.759v22.464q0 1.036-0.723 1.759t-1.759 0.723h-22.464q-1.036 0-1.759-0.723t-0.723-1.759zM1.268 27.232q0 0.5 0.357 0.857t0.857 0.357h22.464q0.5 0 0.857-0.357t0.357-0.857v-22.464q0-0.5-0.357-0.857t-0.857-0.357h-22.464q-0.5 0-0.857 0.357t-0.357 0.857v22.464zM2.161 27.232v-2.518l12.696-3.482-3.786-7.839q0.071-0.018 0.214-0.045t0.214-0.027q3.036-0.571 5.42-0.384t3.946 0.821 2.563 1.688q0.482 0.5-0.446 0.75-1.143 0.286-4.571 1.107l-1.732-3.536q-1.982-0.125-4.286 0.286l3.357 6.911 9.518-2.589v8.857q0 0.125-0.098 0.223t-0.223 0.098h-22.464q-0.125 0-0.223-0.098t-0.098-0.223zM2.161 14.768v-10q0-0.125 0.098-0.223t0.223-0.098h22.464q0.125 0 0.223 0.098t0.098 0.223v7.643q-1.518-0.536-3.357-0.929-5.25-1.143-11.518-0.214l-0.321 0.054-1.161-2.393h-4.161l1.518 3.393q-2.357 0.911-4.107 2.446zM4.393 20.054q-0.429-3.625 2.964-5.446l2.304 4.821-4.554 1.089q-0.25 0.054-0.464-0.080t-0.25-0.384z" fill="#000000"></path>
</svg>
