<?xml version="1.0" encoding="utf-8"?>
<!-- Generated by IcoMoon.io -->
<!DOCTYPE svg PUBLIC "-//W3C//DTD SVG 1.1//EN" "http://www.w3.org/Graphics/SVG/1.1/DTD/svg11.dtd">
<svg version="1.1" xmlns="http://www.w3.org/2000/svg" xmlns:xlink="http://www.w3.org/1999/xlink" width="32" height="32" viewBox="0 0 32 32">
<g id="icomoon-ignore">
	<line stroke-width="1" x1="" y1="" x2="" y2="" stroke="#449FDB" opacity=""></line>
</g>
	<path d="M1.143 17.464l6.036-4.839 8.821 5.446-6.107 5.089zM1.143 7.804l8.75-5.696 6.107 5.089-8.821 5.429zM7.268 24.464v-1.929l2.625 1.714 6.107-5.071v-0.036l0.018 0.018 0.018-0.018v0.036l6.125 5.071 2.625-1.714v1.929l-8.75 5.232v0.018l-0.018-0.018-0.018 0.018v-0.018zM16 18.071l8.821-5.446 6.036 4.839-8.732 5.696zM16 7.196l6.125-5.089 8.732 5.696-6.036 4.821z" fill="#000000"></path>
</svg>
