<?xml version="1.0" encoding="utf-8"?>
<!-- Generated by IcoMoon.io -->
<!DOCTYPE svg PUBLIC "-//W3C//DTD SVG 1.1//EN" "http://www.w3.org/Graphics/SVG/1.1/DTD/svg11.dtd">
<svg version="1.1" xmlns="http://www.w3.org/2000/svg" xmlns:xlink="http://www.w3.org/1999/xlink" width="32" height="32" viewBox="0 0 32 32">
<g id="icomoon-ignore">
	<line stroke-width="1" x1="" y1="" x2="" y2="" stroke="#449FDB" opacity=""></line>
</g>
	<path d="M0 29.143v-19.429q0-1.179 0.839-2.018t2.018-0.839h2.286q1.179 0 2.018 0.839t0.839 2.018v19.429q0 1.179-0.839 2.018t-2.018 0.839h-2.286q-1.179 0-2.018-0.839t-0.839-2.018zM9.143 29.143v-27.429q0-0.714 0.5-1.214t1.214-0.5h12q0.714 0 1.571 0.357t1.357 0.857l2.714 2.714q0.5 0.5 0.857 1.357t0.357 1.571v2.911q1.036 0.607 1.661 1.661t0.625 2.286v13.714q0 1.893-1.339 3.232t-3.232 1.339h-15.429q-1.179 0-2.018-0.839t-0.839-2.018zM11.429 11.429h16v-4.571h-2.857q-0.714 0-1.214-0.5t-0.5-1.214v-2.857h-11.429v9.143zM13.143 27.429q0 0.25 0.161 0.411t0.411 0.161h2.286q0.25 0 0.411-0.161t0.161-0.411v-2.286q0-0.25-0.161-0.411t-0.411-0.161h-2.286q-0.25 0-0.411 0.161t-0.161 0.411v2.286zM13.143 22.857q0 0.25 0.161 0.411t0.411 0.161h2.286q0.25 0 0.411-0.161t0.161-0.411v-2.286q0-0.25-0.161-0.411t-0.411-0.161h-2.286q-0.25 0-0.411 0.161t-0.161 0.411v2.286zM13.143 18.286q0 0.25 0.161 0.411t0.411 0.161h2.286q0.25 0 0.411-0.161t0.161-0.411v-2.286q0-0.25-0.161-0.411t-0.411-0.161h-2.286q-0.25 0-0.411 0.161t-0.161 0.411v2.286zM17.714 27.429q0 0.25 0.161 0.411t0.411 0.161h2.286q0.25 0 0.411-0.161t0.161-0.411v-2.286q0-0.25-0.161-0.411t-0.411-0.161h-2.286q-0.25 0-0.411 0.161t-0.161 0.411v2.286zM17.714 22.857q0 0.25 0.161 0.411t0.411 0.161h2.286q0.25 0 0.411-0.161t0.161-0.411v-2.286q0-0.25-0.161-0.411t-0.411-0.161h-2.286q-0.25 0-0.411 0.161t-0.161 0.411v2.286zM17.714 18.286q0 0.25 0.161 0.411t0.411 0.161h2.286q0.25 0 0.411-0.161t0.161-0.411v-2.286q0-0.25-0.161-0.411t-0.411-0.161h-2.286q-0.25 0-0.411 0.161t-0.161 0.411v2.286zM22.286 27.429q0 0.25 0.161 0.411t0.411 0.161h2.286q0.25 0 0.411-0.161t0.161-0.411v-2.286q0-0.25-0.161-0.411t-0.411-0.161h-2.286q-0.25 0-0.411 0.161t-0.161 0.411v2.286zM22.286 22.857q0 0.25 0.161 0.411t0.411 0.161h2.286q0.25 0 0.411-0.161t0.161-0.411v-2.286q0-0.25-0.161-0.411t-0.411-0.161h-2.286q-0.25 0-0.411 0.161t-0.161 0.411v2.286zM22.286 18.286q0 0.25 0.161 0.411t0.411 0.161h2.286q0.25 0 0.411-0.161t0.161-0.411v-2.286q0-0.25-0.161-0.411t-0.411-0.161h-2.286q-0.25 0-0.411 0.161t-0.161 0.411v2.286z" fill="#000000"></path>
</svg>
