<?xml version="1.0" encoding="utf-8"?>
<!-- Generated by IcoMoon.io -->
<!DOCTYPE svg PUBLIC "-//W3C//DTD SVG 1.1//EN" "http://www.w3.org/Graphics/SVG/1.1/DTD/svg11.dtd">
<svg version="1.1" xmlns="http://www.w3.org/2000/svg" xmlns:xlink="http://www.w3.org/1999/xlink" width="32" height="32" viewBox="0 0 32 32">
<g id="icomoon-ignore">
	<line stroke-width="1" x1="" y1="" x2="" y2="" stroke="#449FDB" opacity=""></line>
</g>
	<path d="M0 30.286v-28.571q0-0.714 0.5-1.214t1.214-0.5h16q0.714 0 1.571 0.357t1.357 0.857l5.571 5.571q0.5 0.5 0.857 1.357t0.357 1.571v20.571q0 0.714-0.5 1.214t-1.214 0.5h-24q-0.714 0-1.214-0.5t-0.5-1.214zM2.286 29.714h22.857v-18.286h-7.429q-0.714 0-1.214-0.5t-0.5-1.214v-7.429h-13.714v27.429zM7.429 27.429h5.839v-1.893h-1.661v-2.982h2.446q1.357 0 2.107-0.268 1.196-0.411 1.902-1.554t0.705-2.607q0-1.446-0.661-2.518t-1.786-1.554q-0.857-0.339-2.321-0.339h-6.571v1.911h1.643v9.911h-1.643v1.893zM11.607 20.536v-4.786h2.143q0.929 0 1.482 0.321 1 0.589 1 2.054 0 1.589-1.107 2.143-0.554 0.268-1.393 0.268h-2.125zM18.286 9.143h6.714q-0.179-0.518-0.393-0.732l-5.589-5.589q-0.214-0.214-0.732-0.393v6.714z" fill="#000000"></path>
</svg>
