<?xml version="1.0" encoding="utf-8"?>
<!-- Generated by IcoMoon.io -->
<!DOCTYPE svg PUBLIC "-//W3C//DTD SVG 1.1//EN" "http://www.w3.org/Graphics/SVG/1.1/DTD/svg11.dtd">
<svg version="1.1" xmlns="http://www.w3.org/2000/svg" xmlns:xlink="http://www.w3.org/1999/xlink" width="32" height="32" viewBox="0 0 32 32">
<g id="icomoon-ignore">
	<line stroke-width="1" x1="" y1="" x2="" y2="" stroke="#449FDB" opacity=""></line>
</g>
	<path d="M0 30.286v-28.571q0-0.714 0.5-1.214t1.214-0.5h14.286v9.714q0 0.714 0.5 1.214t1.214 0.5h9.714v18.857q0 0.714-0.5 1.214t-1.214 0.5h-24q-0.714 0-1.214-0.5t-0.5-1.214zM6.857 24.571q0 0.25 0.161 0.411t0.411 0.161h12.571q0.25 0 0.411-0.161t0.161-0.411v-1.143q0-0.25-0.161-0.411t-0.411-0.161h-12.571q-0.25 0-0.411 0.161t-0.161 0.411v1.143zM6.857 20q0 0.25 0.161 0.411t0.411 0.161h12.571q0.25 0 0.411-0.161t0.161-0.411v-1.143q0-0.25-0.161-0.411t-0.411-0.161h-12.571q-0.25 0-0.411 0.161t-0.161 0.411v1.143zM6.857 15.429q0 0.25 0.161 0.411t0.411 0.161h12.571q0.25 0 0.411-0.161t0.161-0.411v-1.143q0-0.25-0.161-0.411t-0.411-0.161h-12.571q-0.25 0-0.411 0.161t-0.161 0.411v1.143zM18.286 9.143v-8.429q0.393 0.25 0.643 0.5l7.286 7.286q0.25 0.25 0.5 0.643h-8.429z" fill="#000000"></path>
</svg>
