<?xml version="1.0" encoding="utf-8"?>
<!-- Generated by IcoMoon.io -->
<!DOCTYPE svg PUBLIC "-//W3C//DTD SVG 1.1//EN" "http://www.w3.org/Graphics/SVG/1.1/DTD/svg11.dtd">
<svg version="1.1" xmlns="http://www.w3.org/2000/svg" xmlns:xlink="http://www.w3.org/1999/xlink" width="30" height="32" viewBox="0 0 30 32">
<g id="icomoon-ignore">
	<line stroke-width="1" x1="" y1="" x2="" y2="" stroke="#449FDB" opacity=""></line>
</g>
	<path d="M2.063 28.58q-0.616-1.134 0.384-2.723l8.982-14.161v-7.125h-1.143q-0.464 0-0.804-0.339t-0.339-0.804 0.339-0.804 0.804-0.339h9.143q0.464 0 0.804 0.339t0.339 0.804-0.339 0.804-0.804 0.339h-1.143v7.125l8.982 14.161q1 1.589 0.384 2.723t-2.509 1.134h-20.571q-1.893 0-2.509-1.134zM8.5 20.571h12.714l-4.857-7.661-0.357-0.554v-7.786h-2.286v7.786l-0.357 0.554z" fill="#000000"></path>
</svg>
