<?xml version="1.0" encoding="utf-8"?>
<!-- Generated by IcoMoon.io -->
<!DOCTYPE svg PUBLIC "-//W3C//DTD SVG 1.1//EN" "http://www.w3.org/Graphics/SVG/1.1/DTD/svg11.dtd">
<svg version="1.1" xmlns="http://www.w3.org/2000/svg" xmlns:xlink="http://www.w3.org/1999/xlink" width="32" height="32" viewBox="0 0 32 32">
<g id="icomoon-ignore">
	<line stroke-width="1" x1="" y1="" x2="" y2="" stroke="#449FDB" opacity=""></line>
</g>
	<path d="M0 16q0-3.732 1.839-6.884t4.991-4.991 6.884-1.839 6.884 1.839 4.991 4.991 1.839 6.884-1.839 6.884-4.991 4.991-6.884 1.839-6.884-1.839-4.991-4.991-1.839-6.884zM7.134 13.75q0.152 0.661 0.438 1.054l6.232 8.446 6.25-8.446q0.286-0.393 0.438-1.054t-0.107-1.518-1.098-1.411q-0.714-0.464-1.482-0.455t-1.313 0.313-0.973 0.804q-0.643 0.714-1.714 0.714-1.054 0-1.696-0.714-0.429-0.5-0.973-0.804t-1.313-0.313-1.5 0.455q-0.821 0.554-1.080 1.411t-0.107 1.518z" fill="#000000"></path>
</svg>
