<?xml version="1.0" encoding="utf-8"?>
<!-- Generated by IcoMoon.io -->
<!DOCTYPE svg PUBLIC "-//W3C//DTD SVG 1.1//EN" "http://www.w3.org/Graphics/SVG/1.1/DTD/svg11.dtd">
<svg version="1.1" xmlns="http://www.w3.org/2000/svg" xmlns:xlink="http://www.w3.org/1999/xlink" width="30" height="32" viewBox="0 0 30 32">
<g id="icomoon-ignore">
	<line stroke-width="1" x1="" y1="" x2="" y2="" stroke="#449FDB" opacity=""></line>
</g>
	<path d="M0.482 24.571q0-0.482 0.321-0.804l22.964-22.964q0.321-0.321 0.804-0.321t0.804 0.321l3.536 3.536q0.321 0.321 0.321 0.804t-0.321 0.804l-22.964 22.964q-0.321 0.321-0.804 0.321t-0.804-0.321l-3.536-3.536q-0.321-0.321-0.321-0.804zM2.286 2.286l1.75-0.536 0.536-1.75 0.536 1.75 1.75 0.536-1.75 0.536-0.536 1.75-0.536-1.75zM5.714 5.714l3.5-1.071 1.071-3.5 1.071 3.5 3.5 1.071-3.5 1.071-1.071 3.5-1.071-3.5zM13.714 2.286l1.75-0.536 0.536-1.75 0.536 1.75 1.75 0.536-1.75 0.536-0.536 1.75-0.536-1.75zM19.339 8.464l1.911 1.911 5.232-5.232-1.911-1.911zM25.143 13.714l1.75-0.536 0.536-1.75 0.536 1.75 1.75 0.536-1.75 0.536-0.536 1.75-0.536-1.75z" fill="#000000"></path>
</svg>
