<?xml version="1.0" encoding="utf-8"?>
<!-- Generated by IcoMoon.io -->
<!DOCTYPE svg PUBLIC "-//W3C//DTD SVG 1.1//EN" "http://www.w3.org/Graphics/SVG/1.1/DTD/svg11.dtd">
<svg version="1.1" xmlns="http://www.w3.org/2000/svg" xmlns:xlink="http://www.w3.org/1999/xlink" width="32" height="32" viewBox="0 0 32 32">
<g id="icomoon-ignore">
	<line stroke-width="1" x1="" y1="" x2="" y2="" stroke="#449FDB" opacity=""></line>
</g>
	<path d="M0 23.982v-15.964q0-2.375 1.679-4.054t4.036-1.679h16q2.357 0 4.036 1.679t1.679 4.054v15.964q0 2.375-1.679 4.054t-4.036 1.679h-16q-2.357 0-4.036-1.679t-1.679-4.054zM2.768 14.768q0 0.661 0.348 1.205t0.938 0.813q-0.125 0.446-0.125 0.964 0 1.75 1.321 3.241t3.598 2.357 4.973 0.866q2.679 0 4.955-0.866t3.598-2.357 1.321-3.241q0-0.482-0.107-0.964 0.625-0.25 1.018-0.813t0.393-1.259q0-0.911-0.643-1.563t-1.554-0.652q-1.071 0-1.75 0.857-2.696-1.911-6.696-2.054l1.482-4.732 3.679 0.875q0.018 0.893 0.652 1.518t1.509 0.625q0.893 0 1.536-0.634t0.643-1.527-0.643-1.536-1.536-0.643q-0.643 0-1.179 0.366t-0.804 0.955l-4.054-0.964q-0.161-0.036-0.313 0.045t-0.205 0.259l-1.696 5.393q-4 0.071-6.804 2.018-0.643-0.768-1.661-0.768-0.911 0-1.554 0.652t-0.643 1.563zM8.804 16.482q0-0.661 0.464-1.125t1.125-0.464 1.125 0.464 0.464 1.125-0.464 1.143-1.125 0.482-1.125-0.482-0.464-1.143zM10 20.732q0-0.196 0.143-0.321 0.125-0.125 0.313-0.125t0.313 0.125q0.875 0.911 3.071 0.911h0.036q2.179 0 3.089-0.911 0.125-0.125 0.313-0.125t0.313 0.125 0.125 0.321-0.125 0.321q-1.161 1.143-3.714 1.143h-0.036q-2.554 0-3.696-1.143-0.143-0.125-0.143-0.321zM15.75 16.482q0-0.661 0.464-1.125t1.125-0.464 1.125 0.464 0.464 1.125-0.464 1.143-1.125 0.482-1.125-0.482-0.464-1.143zM20.411 7.429q0-0.536 0.375-0.911t0.893-0.375q0.536 0 0.911 0.375t0.375 0.911q0 0.518-0.375 0.893t-0.911 0.375q-0.518 0-0.893-0.375t-0.375-0.893z" fill="#000000"></path>
</svg>
