<?xml version="1.0" encoding="utf-8"?>
<!-- Generated by IcoMoon.io -->
<!DOCTYPE svg PUBLIC "-//W3C//DTD SVG 1.1//EN" "http://www.w3.org/Graphics/SVG/1.1/DTD/svg11.dtd">
<svg version="1.1" xmlns="http://www.w3.org/2000/svg" xmlns:xlink="http://www.w3.org/1999/xlink" width="32" height="32" viewBox="0 0 32 32">
<g id="icomoon-ignore">
	<line stroke-width="1" x1="" y1="" x2="" y2="" stroke="#449FDB" opacity=""></line>
</g>
	<path d="M0 24.571v-17.143q0-2.125 1.509-3.634t3.634-1.509h17.143q2.125 0 3.634 1.509t1.509 3.634v17.143q0 2.125-1.509 3.634t-3.634 1.509h-17.143q-2.125 0-3.634-1.509t-1.509-3.634zM2.286 15.054q0 0.946 0.679 1.625t1.643 0.679q0.643 0 1.179-0.321l8.732 3.518q0.179 0.786 0.813 1.304t1.455 0.518q0.893 0 1.545-0.607t0.741-1.482l2.982-2.179q1.268 0 2.179-0.902t0.911-2.188-0.911-2.196-2.179-0.911q-1.286 0-2.188 0.902t-0.92 2.17l-1.929 2.768q-0.036 0-0.116-0.009t-0.116-0.009q-0.625 0-1.196 0.339l-8.732-3.518q-0.179-0.786-0.813-1.304t-1.438-0.518q-0.964 0-1.643 0.679t-0.679 1.643zM2.893 15.054q0-0.714 0.5-1.214t1.214-0.5q0.482 0 0.884 0.25t0.616 0.661l-0.857-0.339q-0.518-0.196-1.009 0.036t-0.688 0.732q-0.214 0.518-0.009 1.018t0.705 0.714v0.018l0.714 0.286q-0.25 0.036-0.357 0.036-0.714 0-1.214-0.491t-0.5-1.205zM15.268 20.839q0.089 0.036 0.839 0.339 0.518 0.214 1.036-0.009t0.732-0.741q0.196-0.518-0.018-1.027t-0.732-0.723l-0.714-0.286q0.25-0.036 0.375-0.036 0.696 0 1.196 0.491t0.5 1.205-0.5 1.205-1.196 0.491q-1.054 0-1.518-0.911zM19.964 15.018q0-0.857 0.607-1.464t1.482-0.607q0.857 0 1.464 0.607t0.607 1.464-0.607 1.464-1.464 0.607q-0.875 0-1.482-0.607t-0.607-1.464zM20.393 15q0 0.696 0.491 1.179t1.17 0.482 1.17-0.482 0.491-1.179q0-0.679-0.491-1.17t-1.17-0.491-1.17 0.491-0.491 1.17z" fill="#000000"></path>
</svg>
