<?xml version="1.0" encoding="utf-8"?>
<!-- Generated by IcoMoon.io -->
<!DOCTYPE svg PUBLIC "-//W3C//DTD SVG 1.1//EN" "http://www.w3.org/Graphics/SVG/1.1/DTD/svg11.dtd">
<svg version="1.1" xmlns="http://www.w3.org/2000/svg" xmlns:xlink="http://www.w3.org/1999/xlink" width="37" height="32" viewBox="0 0 37 32">
<g id="icomoon-ignore">
	<line stroke-width="1" x1="" y1="" x2="" y2="" stroke="#449FDB" opacity=""></line>
</g>
	<path d="M0 13.786q0-1.536 1.089-2.616t2.607-1.080q1.304 0 2.321 0.821t1.304 2.089l13.982 5.625q0.875-0.518 1.893-0.518 0.25 0 0.375 0.018l3.089-4.429q0.018-2.036 1.464-3.473t3.482-1.438q2.054 0 3.509 1.446t1.455 3.5-1.455 3.509-3.509 1.455l-4.732 3.464q-0.143 1.429-1.205 2.384t-2.473 0.955q-1.304 0-2.321-0.821t-1.304-2.089l-13.982-5.625q-0.911 0.536-1.893 0.536-1.518 0-2.607-1.089t-1.089-2.625zM0.982 13.786q0 1.143 0.795 1.938t1.92 0.795q0.196 0 0.589-0.071l-1.143-0.464q-0.589-0.25-0.938-0.795t-0.348-1.188q0-0.893 0.634-1.527t1.527-0.634q0.357 0 0.732 0.143v-0.018l1.357 0.554q-0.357-0.661-1.009-1.054t-1.402-0.393q-1.125 0-1.92 0.795t-0.795 1.92zM20.786 23.071q0.339 0.661 0.991 1.054t1.42 0.393q1.125 0 1.92-0.795t0.795-1.92-0.795-1.929-1.92-0.804q-0.232 0-0.589 0.071 0.036 0.018 0.357 0.143t0.384 0.152 0.33 0.152 0.339 0.179 0.286 0.196 0.277 0.241 0.196 0.259 0.179 0.321 0.089 0.375 0.045 0.446q0 0.893-0.634 1.527t-1.527 0.634q-0.25 0-0.563-0.080t-0.518-0.161-0.563-0.241-0.5-0.214zM28.286 13.732q0 1.375 0.973 2.348t2.348 0.973 2.357-0.973 0.982-2.348-0.982-2.348-2.357-0.973q-1.357 0-2.339 0.973t-0.982 2.348zM28.982 13.732q0-1.107 0.777-1.884t1.866-0.777 1.875 0.786 0.786 1.875-0.777 1.866-1.884 0.777q-1.089 0-1.866-0.777t-0.777-1.866z" fill="#000000"></path>
</svg>
