<?xml version="1.0" encoding="utf-8"?>
<!-- Generated by IcoMoon.io -->
<!DOCTYPE svg PUBLIC "-//W3C//DTD SVG 1.1//EN" "http://www.w3.org/Graphics/SVG/1.1/DTD/svg11.dtd">
<svg version="1.1" xmlns="http://www.w3.org/2000/svg" xmlns:xlink="http://www.w3.org/1999/xlink" width="32" height="32" viewBox="0 0 32 32">
<g id="icomoon-ignore">
	<line stroke-width="1" x1="" y1="" x2="" y2="" stroke="#449FDB" opacity=""></line>
</g>
	<path d="M0 16q0-3.732 1.839-6.884t4.991-4.991 6.884-1.839 6.884 1.839 4.991 4.991 1.839 6.884-1.839 6.884-4.991 4.991-6.884 1.839-6.884-1.839-4.991-4.991-1.839-6.884zM5.714 18.464q0 1.464 1.027 2.482t2.491 1.018q1.446 0 2.473-1.009t1.027-2.438v-5q0-0.339 0.241-0.589t0.598-0.25q0.339 0 0.58 0.25t0.241 0.589v0.964l1.071 0.5 1.607-0.482v-1.107q0-1.411-1.036-2.411t-2.464-1-2.464 0.991-1.036 2.402v5.054q0 0.357-0.25 0.598t-0.589 0.241-0.58-0.241-0.241-0.598v-2.143h-2.696v2.179zM14.393 18.5q0 1.429 1.036 2.446t2.482 1.018 2.473-1.018 1.027-2.482v-2.179h-2.679v2.25q0 0.357-0.241 0.598t-0.598 0.241q-0.339 0-0.58-0.25t-0.241-0.589v-2.196l-1.607 0.464-1.071-0.5v2.196z" fill="#000000"></path>
</svg>
