<?xml version="1.0" encoding="utf-8"?>
<!-- Generated by IcoMoon.io -->
<!DOCTYPE svg PUBLIC "-//W3C//DTD SVG 1.1//EN" "http://www.w3.org/Graphics/SVG/1.1/DTD/svg11.dtd">
<svg version="1.1" xmlns="http://www.w3.org/2000/svg" xmlns:xlink="http://www.w3.org/1999/xlink" width="30" height="32" viewBox="0 0 30 32">
<g id="icomoon-ignore">
	<line stroke-width="1" x1="" y1="" x2="" y2="" stroke="#449FDB" opacity=""></line>
</g>
	<path d="M0 28v-5.714q0-0.714 0.5-1.214t1.214-0.5h7.625q0.375 1 1.259 1.643t1.973 0.643h4.571q1.089 0 1.973-0.643t1.259-1.643h7.625q0.714 0 1.214 0.5t0.5 1.214v5.714q0 0.714-0.5 1.214t-1.214 0.5h-26.286q-0.714 0-1.214-0.5t-0.5-1.214zM5.804 10.714q-0.304-0.696 0.25-1.232l8-8q0.321-0.339 0.804-0.339t0.804 0.339l8 8q0.554 0.536 0.25 1.232-0.304 0.714-1.054 0.714h-4.571v8q0 0.464-0.339 0.804t-0.804 0.339h-4.571q-0.464 0-0.804-0.339t-0.339-0.804v-8h-4.571q-0.75 0-1.054-0.714zM20.571 26.286q0 0.464 0.339 0.804t0.804 0.339 0.804-0.339 0.339-0.804-0.339-0.804-0.804-0.339-0.804 0.339-0.339 0.804zM25.143 26.286q0 0.464 0.339 0.804t0.804 0.339 0.804-0.339 0.339-0.804-0.339-0.804-0.804-0.339-0.804 0.339-0.339 0.804z" fill="#000000"></path>
</svg>
